<?xml version="1.0" encoding="utf-8"?>
<!-- Generator: Adobe Adobe Illustrator 24.2.0, SVG Export Plug-In . SVG Version: 6.00 Build 0)  -->
<svg version="1.1" xmlns="http://www.w3.org/2000/svg" xmlns:xlink="http://www.w3.org/1999/xlink" x="0px" y="0px"
	 width="2834.65px" height="850.39px" viewBox="0 0 2834.65 850.39" style="enable-background:new 0 0 2834.65 850.39;"
	 xml:space="preserve">
<style type="text/css">
	.st0{display:none;}
	.st1{fill:#3875AF;}
	.st2{fill:#17A79D;}
	.st3{fill:#F3D238;}
	.st4{fill:#EF553F;}
</style>
<g id="레이어_1" class="st0">
</g>
<g id="레이어_4">
	<path class="st1" d="M517.35,482.65c-1.79-4.92-4.34-9.79-8.03-13.53c-1.71-1.42-3.31-3-5.29-4.05c-2.96-1.54-6.25-2.4-9.54-2.98
		c-3.88-0.16-7.77,1.27-11.33,2.68c-1.84,0.94-3.61,2.06-5.28,3.31c-4.75,1.27-9.16,3.73-13.09,6.78c-0.96-2.23-2.07-4.37-3.35-6.41
		c1.91-2.47,3.81-4.93,5.72-7.4c3.48-5.99,5.23-12.46,5.25-19.4c0.19-2.9,0.15-5.81,0.39-8.7c-0.02,0.12-0.03,0.24-0.05,0.37
		c0.04-0.7,0.06-1.39,0.08-2.09c1.35-0.03,2.63-0.5,3.67-1.54c0.52,1.39,1.19,2.72,2.14,3.92c1.33,2.79,4.11,4.73,7.2,5
		c0.63-0.12,1.26-0.28,1.89-0.45c3.6-0.84,7.21-1.69,10.84-2.4c2.15-0.5,4.44-0.56,6.6-1.07c0.27-0.04,0.63-0.11,1.12-0.19
		c2.27-0.43,4.7-0.2,6.81-1.24c0.57-0.25,1.04-0.65,1.43-1.18c0.04-0.02,0.07-0.05,0.11-0.08c2.43-0.61,4.61-1.79,5.71-4.32
		c3.29-4.73,3.85-10.7,4.09-16.32c-0.19-5.4-0.87-11.07-3.64-15.76c-0.67-2.23-1.51-4.38-2.44-6.49c0.4-3.19,0.74-6.38,1.06-9.57
		c0.27-2.7,0.49-5.4,0.72-8.1c0.12-1.12,0.07-2.37-0.57-3.33c-0.68-1.08-1.43-0.71-1.93,0.03c-0.32-2.11-0.77-4.27-1.42-6.26
		c-0.03-1.81-0.11-3.62-0.28-5.43c-0.24-2.92-0.57-6.09-2.33-8.52c-2.54-2.63-4.37,0.87-5.01,3.18c-0.22,0.98-0.38,1.96-0.52,2.96
		c-0.25,0.07-0.49,0.16-0.74,0.25c-0.8-4.8-1.06-9.85-4.09-13.77c-0.55-0.47-1.1-0.93-1.66-1.4c-0.59-0.37-1.19-0.52-1.78-0.48
		c-1.6-1.95-3.58-3.45-6.29-3.54c-1.96,0.31-3.74,1.18-5.22,2.43c-0.64-1.17-1.45-2.23-2.62-2.99c-0.46-0.59-1.02-0.98-1.68-1.19
		c-2.4-2.07-5.81-2.95-8.73-1.38c-0.18,0.1-0.35,0.22-0.52,0.32c0.23-4.5,0.49-9,0.5-13.5c-0.2-6.95-1.17-13.86-2.11-20.76
		c0,0,0,0,0,0c0.1-2.76-0.26-5.39-1.06-7.9c0-0.02-0.01-0.04-0.01-0.07c0,0-0.01,0-0.01,0c-0.4-1.22-0.89-2.42-1.5-3.58
		c-1.21-3.72-3.27-6.93-6.2-9.64c-2.02-1.56-4.04-3.12-6.07-4.69c-3.44-2.19-7.15-3.38-11.14-3.56c-1.04-0.28-2.07-0.44-3.11-0.51
		c-2.28-3.2-5.24-5.94-8.6-7.92c-1.91-1.22-3.91-2.09-6.01-2.63c-0.44-0.17-0.87-0.34-1.33-0.46c-3.65-1.92-7.58-2.8-11.79-2.64
		c-2.71,0.36-5.42,0.73-8.14,1.09c-2.44,1.03-4.87,2.06-7.31,3.09c-3.08,1.66-5.63,3.85-7.66,6.56l-0.22,0.17
		c-3.47,3.49-5.86,7.6-7.19,12.34c-0.46,2.58-0.9,5.16-1.19,7.76c-1.01,7.58-2.07,15.18-2.29,22.83c0.06,1.7,0.2,3.41,0.38,5.1
		c0,0.98,0.05,1.95,0.12,2.91c-0.34-0.04-0.67-0.09-1.01-0.13c-4.3-0.61-8.63-1.27-12.98-1.1c-1.87,0.18-3.74,0.36-5.62,0.56
		c0-8.97-0.34-17.93-1.05-26.87c-0.27-3.49-0.6-6.97-0.97-10.44c-0.02-0.16-0.02-0.31-0.03-0.47c0.01-0.08,0.02-0.17,0.03-0.25
		c-0.34-2.56-0.69-5.12-1.03-7.68c-0.89-3.76-2.62-7.04-5.17-9.83c-1.28-2.17-3.01-3.9-5.18-5.18c-2.79-2.55-6.07-4.28-9.83-5.17
		c-2.56-0.34-5.12-0.69-7.68-1.03c-2.56,0.34-5.12,0.69-7.68,1.03c-3.76,0.89-7.04,2.62-9.83,5.17c-1.5,0.97-2.85,2.1-4.04,3.37
		c-2.99-1.52-6.16-2.37-9.52-2.52c-2.77-0.74-5.54-0.74-8.31,0c-4.16,0.19-8.04,1.43-11.63,3.71c-2.11,1.63-4.22,3.26-6.33,4.89
		c-2.03,2.04-3.72,4.28-5.09,6.7c-3.04,4.09-4.59,9.24-4.33,14.33c-0.06,0.42-0.11,0.84-0.17,1.26c-0.06,0.42-0.11,0.85-0.17,1.27
		c-1.01,4.65-1.85,9.34-2.59,14.04c-0.19,0.66-0.36,1.33-0.5,2.01c-1.19,5.1-2.37,10.2-3.37,15.34c-0.26,0.72-0.51,1.44-0.75,2.17
		c-0.9,5.01-1.52,10.08-1.55,15.18c-0.02,0.39-0.06,0.79-0.08,1.18c-0.13,1.11-0.21,2.22-0.25,3.33c-1.18-0.49-2.36-0.97-3.52-1.48
		c-4.42-1.56-9.43-2.05-14.1-2.2c-3.17,0.47-6.38,0.74-9.52,1.36c-3.68,1.2-7.32,2.58-10.72,4.46c-3.55,2.8-7.66,5.15-10.05,9.12
		c-3.49,3.75-5.11,8.57-7.03,13.22c-0.88,3.22-0.96,6.62-1.52,9.91c0.17,1.82,0.35,3.66,0.59,5.48c-0.37,0.94-0.72,1.89-1.02,2.85
		c-1,4.31-0.78,8.43,0.04,12.74c0.62,2.01,1.6,3.89,2.37,5.84c1.21,2.05,2.89,3.8,4.28,5.73c2.21,2.28,4.88,4.15,7.48,5.96
		c3.17,1.4,6.34,2.97,9.71,3.84c2.93,0.62,5.92,0.86,8.88,1.3c4.5,0.5,9.02-0.38,13.44-1.17c3.32-0.81,6.41-2.28,9.55-3.62
		c-0.59,7.43-1.03,14.88-1.27,22.33c-0.02,0.15-0.05,0.29-0.08,0.44c-1.5,11.15-3.37,22.39-3.51,33.66
		c-2.97-0.84-5.89-1.84-8.77-2.95c-5.2-2.58-9.97-6.01-15.56-7.75c-10.21-2.6-20.59,1.72-26.14,10.62c-0.75,1.78-1.5,3.56-2.25,5.34
		c-0.51,2.09-0.77,4.25-0.94,6.39c-0.8,1.13-1.57,2.29-2.28,3.47c-2.39,4.96-4.32,9.9-4.24,15.49c-0.14,4.42,1.78,9.4,3.74,13.46
		c2.41,3.08,4.56,6.44,7.72,8.83c4.07,3.07,7.91,6.58,12.64,8.6c3.13,1.25,6.15,2.82,9.42,3.69c3.9,0.81,7.92,1.44,11.91,1.47
		c2.04-0.23,4.1-0.44,6.15-0.73c-1.56,5.85-2.3,11.91-3.06,17.92c-1,8.01-1,16.19,0.18,24.19c0.82,7.58,2.4,15.08,5.37,22.13
		c2.01,4.48,3.46,9.29,6.43,13.25c1.96,2.49,3.82,5.06,5.85,7.5c0.09,0.08,0.18,0.16,0.27,0.24c-0.55,1.36-0.87,2.86-0.88,4.53
		c0.05,4.08,2.18,7.36,5.22,9.24c2.26,7.44,9.13,13.41,16.99,13.88c1.11,0.44,2.21,0.46,3.33,0.28c3.2-0.26,6.31-0.89,9.27-2.01
		c0.41-0.08,0.83-0.16,1.24-0.24c15.4-2.56,28.12-8.77,29.05-9.14c3.28-1.38,5.19-4.33,7.27-7.03c1.37-2.15,2.11-4.46,2.22-6.95
		c0.45-1.66,0.45-3.31,0-4.97c-0.11-2.49-0.85-4.8-2.22-6.95c-1-1.45-2.16-2.85-3.46-4.11c1.63-2.33,3.13-4.74,4.41-7.27
		c2.24-5.01,4.55-10.03,6.22-15.27c1.32-4.6,2.28-9.3,3.3-13.97c0.69-4.28,1.38-8.58,1.98-12.89c0.41,0.26,0.82,0.53,1.24,0.78
		c3.32,2.25,6.96,4.08,10.84,4.69c3.71,0.59,7.47,1.28,11.23,1.49c1.86,0.25,3.73,0.47,5.6,0.6c2.14-0.24,4.28-0.49,6.42-0.76
		c-0.57,4.63-0.77,9.32-1.07,13.97c-0.09,1.42-0.14,2.85-0.18,4.28c-1.28,19.17-5.07,51.38,10.41,62.94c1.86,1.21,4.91,1.73,7.12,2
		c2.05-0.03,4.06-0.4,6.05-0.9c2.08,0.29,4.15-0.37,6.15-0.89c2.75-0.64,5.35-1.73,7.84-3.04c2.25-0.65,4.48-1.34,6.68-2.14
		c0.19-0.06,0.36-0.16,0.53-0.26c0.42-0.17,0.86-0.3,1.31-0.42c0.62,1.55,1.28,3.07,1.98,4.57c1.28,3.07,3.08,5.84,5.95,7.6
		c5.97,3.1,11.5-3.29,13.89-8.2c0.17-0.41,0.33-0.82,0.49-1.22c1.73-1.5,2.92-3.83,4.12-5.7c2.43-5.24,3.44-10.92,4.53-16.55
		c2.03-10.71,2.72-21.6,3.51-32.45c0.73-11.43,1.31-22.93,1.33-34.41c1.75-0.71,3.34-1.74,4.57-3.2c0.04,0.01,0.08,0.02,0.12,0.03
		c1.2,0.35,2.41,0.65,3.65,0.73c1.54,0.07,3.02-0.41,4.49-0.82c1.32,1.22,2.73,2.36,4.26,3.25c0.15,0.07,0.31,0.13,0.46,0.19
		c0.29,0.41,0.59,0.81,0.9,1.21c2.21,2.27,4.6,4.76,7.63,5.78c2.01,0.51,4.01,1.3,6.11,1.24c4.2-0.56,8.38-2.1,11.59-4.93
		c4.84-3.57,8.43-8.32,11.47-13.45c1.07-1.82,2.06-3.71,2.97-5.66c3.48-3.76,4.98-9.12,5.87-14.07c0.47-3.15,0.7-6.33,0.68-9.5
		C522.5,504.62,521.32,492.91,517.35,482.65z M373.89,438.76c-0.35,3.84-0.66,7.69-0.91,11.54c-7.48,0.82-14.96,1.63-22.46,2.22
		c-5.88,0.37-11.76,0.31-17.65,0.51c0.21-10.87,0.88-21.72,1.69-32.57c0.37,0.32,0.74,0.64,1.13,0.94c2.85,2.18,5.56,4.6,8.75,6.27
		c3.77,1.61,7.48,3.56,11.5,4.47c4.28,0.68,8.6,1.38,12.95,1.38c1.86-0.1,3.72-0.31,5.58-0.57
		C374.25,434.89,374.06,436.82,373.89,438.76z"/>
	<path class="st1" d="M739.32,387.52c-1.55-2.01-3.67-3.12-6.18-3.16c-0.36,0-2.19,0.53-3.21,0.87c-0.96,0.83-1.96,1.63-2.91,2.47
		c-0.88,1.22-1.63,2.53-2.47,3.78c-2.83,6.43-4.32,13.4-6.13,20.18c-0.29,1.22-0.57,2.44-0.84,3.66c-2.38,7.03-4.6,14.12-6.97,21.15
		c-4.05,12.39-7.73,24.9-11.77,37.29c-1.97,6.36-4.16,12.65-6.25,18.98c-0.59-0.26-1.23-0.43-1.92-0.49
		c-4.98,0.42-7.24,6.48-8,10.76c-1.69,5.83-0.75,20.12,5.68,23.53c0.92,3.01,2.32,5.62,4.36,7.23c0.61,0.79,1.41,1.22,2.39,1.29
		c0.84,0.45,1.68,0.45,2.52,0c0.98-0.07,1.78-0.5,2.39-1.29c2.01-1.36,2.99-3.55,3.82-5.8c0.19-0.4,0.38-0.81,0.55-1.21
		c4.12-8.75,8.02-17.59,11.74-26.5c0.4,1.5,0.88,2.98,1.52,4.4c0.63,1.22,1.17,2.54,2.36,3.3c0.96,1.2,2.54,1.13,3.87,0.6
		c1.22-0.77,2.06-1.86,2.68-3.15c0.07-0.11,0.14-0.21,0.21-0.32c2.38-4.84,1.94-10.36,1.2-15.53c-0.04-0.28-0.08-0.56-0.11-0.84
		c0.04-0.91,0.07-1.83,0.12-2.74c0.19-2.24,1.13-12.35,2.58-23.15c3.86-10.66,7.45-21.41,10.76-32.26c0.01-0.03,0.01-0.06,0.02-0.09
		c1.4-5.53,2.86-11.12,3.31-16.82C745.68,404.77,744.92,394.83,739.32,387.52z"/>
	<path class="st2" d="M939.15,422.65c-0.16-3.38-0.39-6.59-0.76-9.75c-0.74-11.63-4.68-23.07-11.39-32.61
		c-2.72-3.87-6.36-7.31-10.63-9.4c-4.36-1.68-9-3.17-13.72-3.1c-4.99,0.4-10.11,1.8-14.28,4.66c-0.98-17.01-2.67-33.99-4.89-50.89
		c-1.79-12.51-2.3-25.66-7.18-37.42c0.04-0.25,0.1-0.49,0.14-0.74c0.84-3.68,1.37-7.41,1.65-11.16c1.05-10.7-0.53-21.57-3.07-31.99
		c-0.06-0.25-0.12-0.51-0.18-0.76c-2-7.63-4.87-15.12-9.56-21.52c-7.5,0.44-15.01,0.31-22.51-0.16c-6.91-0.44-13.77-1.63-20.69-1.45
		c-6.33,0.16-13.45,0.54-20.17-0.43c-1.17,2.22-2.02,4.65-2.91,7.1c-1.86,7.91-2.75,16.35-0.69,24.3c0.64,3.79,1.95,7.79,4.2,10.92
		c0.59,1.32,1.48,2.39,2.63,3.22c-3.31,17.32-5.4,34.84-6.58,52.42c-1.36,19.7-3.42,39.37-4.04,59.12
		c-0.3,22.29,1.17,44.56,1.36,66.84c0.01-0.07,0.02-0.15,0.03-0.23c-0.15,3.66-0.17,7.33-0.16,10.99c-1.31-1.08-2.69-2.07-4.23-2.77
		c-2.91-0.83-5.91-2.13-8.98-1.94c-2.11,0.33-4.15,1.08-6.24,1.58c-1.4,0.48-2.45,1.56-3.58,2.46c-2.58,2.25-5.41,4.28-7.59,6.95
		c-0.25,0.31-0.48,0.64-0.72,0.96c-0.8-1.8-1.84-3.34-3.14-4.3c-0.68-0.72-1.46-1.15-2.29-1.38c1.11-3.88,2.15-7.79,3.11-11.71
		c2.13-2.94,3.28-6.5,3.74-10.09c0.21-2.59,0.41-5.21,0.19-7.79c1.56-7.82,2.79-15.71,3.64-23.64c0.22-1.79,0.35-3.59,0.5-5.39
		c-0.01-0.01-0.02-0.01-0.03-0.02c0.52-3.47,0.74-6.97,0.27-10.49c-0.25-5.94-1.45-12.29-4.96-17.2c-1.01-2-2.5-3.57-4.48-4.72
		c-0.75-0.2-1.5-0.4-2.25-0.6c-0.04-0.35-0.09-0.7-0.16-1.05c1.29-0.92,2.54-1.87,3.73-2.92c2.72-3.17,4.18-7.22,4.68-11.33
		c0.2-2,0.31-4.03,0.26-6.05c4.96-2.99,9.64-6.42,13.54-10.72c7.4-8.84,8.13-25,1.12-34.21c-1.05-0.92-2.05-2.05-3.36-2.57
		c-0.17-0.05-0.34-0.09-0.51-0.14c0.25-1.61,0.33-3.27,0.23-4.92c0.9-3.04,0.32-7.98-2.45-8.51c-0.06,0-0.13,0.02-0.19,0.02
		c-0.13-0.2-0.26-0.4-0.4-0.59c-1.81-2.48-5.04-1.63-7.61-1.21c-1.81,0.34-3.72,0.69-5.61,1.15c-0.71-5.12-2.67-9.73-6.11-12.07
		c-3.59-2.33-7.83-1.24-11.79-0.84c-5.46,0.65-10.92,1.54-16.31,2.62c-4.23,0.85-8.44,1.78-12.65,2.76
		c-0.05-0.21-0.1-0.43-0.15-0.64c-1.1-4.12-3.83-8.79-8.53-9.06c-1.99,0.09-3.92,0.84-5.9,1.15c-7.55,1.6-14.97,3.77-22.39,5.9
		c-5.49,1.67-10.93,3.47-16.35,5.34c-0.75-3.56-1.77-7.02-3.25-10.36c-0.61-1.54-1.47-2.87-2.51-4.03
		c-2.31,1.33-4.91,1.66-7.52,2.38c-2.03,0.56-3.5-0.64-4.04-2.17c-9.19,1.89-18.51,2.85-27.47,1.87c-2.49-0.27-4.05-1.91-4.51-3.78
		c-2.09-0.02-4.18-0.05-6.27-0.05c-5.36,1.26-10.76,2.17-16.29,1.85c-0.17,0.26-0.34,0.52-0.52,0.78c-0.8,1.57-1.46,3.18-2.01,4.83
		c-1.31-1.46-2.95-2.47-4.99-2.63c-2.72,0.15-4.97,1.98-6.15,4.39c-0.4,0.55-0.75,1.12-1.07,1.71c-1.37,0.38-2.72,0.83-4.04,1.38
		c-3.37,1.7-6,4.4-8.1,7.48c-4.84-2.64-8.34,5.87-8.29,10.99c-0.33,2.39,0.06,4.78,0.35,7.16c0.05,0.23,0.1,0.47,0.15,0.7
		c-0.01,0.01-0.01,0.03-0.02,0.04c-0.01-0.03-0.01-0.05-0.02-0.07c0,0.03,0.01,0.06,0.01,0.09c-0.33,0.78-0.62,1.57-0.83,2.39
		c-2.62,5.98-3.92,12.47-4.04,18.96c-0.61,5.25,0.03,10.5,0.38,15.74c0.24,2.46,0.95,4.84,1.51,7.25c1.25-0.68,2.75-0.75,4.14,0.32
		c2.11,1.63,3.99,3.4,5.68,5.29c0.78,0.15,1.55,0.52,2.23,1.16c1.16-2.39,4.64-3.68,7.09-2.33c5.12,2.83,6.65,8.79,4.58,13.72
		c0.22,2.41,0.08,4.78-0.68,6.99c1.11,0.27,2.24,0.5,3.39,0.57c3.48,0.27,6.96,0.11,10.44,0.02c0.75,0.16,1.5,0.32,2.26,0.47
		c0,4.81,0,9.61,0,14.42c0,7.32,0,14.64,0,21.96c-0.44,7.24-0.71,14.48-0.4,21.73c0.18,3.62,0.45,7.38,1.12,11.02
		c-0.36,5.53-0.68,10.33-0.98,14.13c-0.45,6.32-0.84,13.01-1.21,19.42c-0.87,0.03-1.73,0.19-2.56,0.44
		c-2.1,0.48-4.22,0.98-6.19,1.84c-0.91-0.3-1.84-0.55-2.79-0.67c-0.99,0.15-1.96,0.44-2.93,0.73c-4.7-0.56-9.41,1.02-13.9,2.4
		c-2.69,0.91-4.96,2.68-7.04,4.57c-1.85,1.56-3.77,3.05-5.28,4.95c-2.04,2.56-3.74,5.4-5.48,8.17c-1.62,3.28-2.84,6.77-4.06,10.22
		c-0.83,3.52-1.54,7.07-2.26,10.61c-0.26,3.93-0.63,7.87-0.75,11.81c0.26,3.66,0.46,7.32,0.76,10.98c0.56,3.34,1.41,6.62,2.06,9.94
		c1.22,3.78,2.74,7.51,4.41,11.12c1.65,2.99,3.6,5.81,5.5,8.64c0.89,1.09,1.89,2.1,2.93,3.06c0.43-0.43,0.95-0.77,1.52-0.95
		c0.35-2.17,1.43-4.12,3.53-5.01c1.13-0.48,2.27-0.53,3.38-0.27c0.97-0.46,2.13-0.55,3.42-0.08c0.56,0.21,1.07,0.46,1.56,0.75
		c0.68-0.22,1.62-0.58,2.09-0.67c3.15-0.61,7.06,2.91,4.69,6.1c-0.44,0.59-0.96,1.15-1.52,1.66c0.58,1.89,0.84,3.92,0.8,5.86
		c-0.01,0.66-0.15,1.25-0.37,1.76c4.33,0.4,8.7-1.06,12.85-2.32c4.9-1.76,8.55-5.75,12.43-9.06c1.69-1.66,3.16-3.55,4.44-5.54
		c0.69-1.1,1.41-2.19,2.13-3.28c0.77-0.67,1.51-1.37,2.25-2.08c1.51,3.86,3.44,7.56,7.18,9.74c3.4,1.16,6.98,1.68,10.61,1.92
		c1.56,4.68,3.68,8.83,6.36,12.03c5.33,6.88,11.56,5.25,19.07,4.44c6.06-0.72,12.13-1.44,18.16-2.39
		c14.33-1.35,28.7-2.31,43.08-2.76c15.37-0.54,30.74-0.82,46.1-1.66c9.27-0.77,18.98-0.55,27.88-3.42c1.55-1.31,3.1-2.62,4.65-3.93
		l3.94-6.09c1.05-2.47,2.01-4.98,2.83-7.53c2.33-3.36,4.59-6.78,6.58-10.36c1.01,9.57,2.22,19.11,4.02,28.55
		c-0.76,3.08-1.23,6.25-1.49,9.45c-0.62,2.09-1.28,4.18-1.87,6.28c-1.57,6.31-2.72,12.68-2.89,19.19
		c-1.02,11.17-0.51,22.38,0.31,33.55c0.53,8.99,1.15,18.22,5.41,26.23c2.26,3.36,4.27,8.01,8.77,8.4c1.35,0.73,2.71,0.73,4.06,0
		c2.35-0.32,4.25-1.53,5.68-3.62c1.5-1.35,2.62-3.02,3.35-5.02c0.96-2.05,1.73-4.17,2.37-6.33c0.41,0.61,0.84,1.21,1.31,1.79
		c4.09,5.48,11.65,5.59,15.78,0c0,0,0-0.01,0.01-0.01c0.78,3.11,1.86,6.13,3.25,9.06c1.16,2.92,2.98,5.25,5.45,7.01
		c4,4.77,11.7,3.09,15.08-1.71c1.26-2.05,2.79-3.98,3.84-6.14c4.32-9.96,5.83-20.88,5.6-31.72c0.02-0.45,0.05-0.9,0.07-1.34
		c0.04-1.07,0.1-2.14,0.13-3.22c0.05-1.14,0.07-2.28,0.03-3.42c-0.14-9.43-0.17-18.86,0.24-28.28c0.15-1.66,0.3-3.33,0.45-4.99
		c1.5-19.28,1.32-11.83,1.83-45.42c1.02-24.28,2.06-48.56,2.98-72.85c0.04-1.59,0.13-3.4,0.25-5.43c3,2.65,6.27,5.02,10.34,5.68
		c3.15,0.94,6.42,1.68,9.71,1.1c3.66-0.73,7.43-1.53,10.75-3.3c2.77-1.83,5.32-4.05,7.64-6.42c2.18-2.57,3.85-5.52,5.68-8.34
		c1.69-2.64,2.66-5.65,3.8-8.55c0.98-2.55,2.07-5.08,2.59-7.78c0.65-3.34,1.56-6.63,2.01-10
		C938.76,431.89,939.31,427.26,939.15,422.65z M690.75,362.65c-5.14,3.56-10.21,7.22-14.98,11.26c-3.34,2.72-7.06,5.18-8.74,9.34
		c-2.54,5.94-3.32,12.81-1.81,19.12c0.61,3.21,1.84,6.83,4.37,9.01c-3.64,7.85-3.31,19.09,0.84,26.48c-1.75,2-3.42,4.07-4.97,6.23
		c-1.37,2.74-3.71,3.27-5.55,13.11c-0.79,7.84,0.01,17.19,6.02,22.81c-0.86,0.7-1.71,1.4-2.42,2.23c-1.15,1.73-2.39,3.44-3.35,5.29
		c-0.3,0.69-0.57,1.38-0.83,2.08c-1.01-0.29-2.02-0.62-3.09-0.6c-1.43-0.12-2.91,0.23-4.35,0.29c-0.61,0.06-1.22,0.13-1.82,0.21
		c0.42-5.34,0.78-10.69,1.2-16.04c1.06-15.25,2.59-30.47,3.72-45.72c0.71-10.64,2.22-21.81-1.61-32.01
		c0.95-9.34,2.1-18.65,3.45-27.94c0.59-4.09,1.11-8.2,1.7-12.3c0.08-0.43,0.15-0.87,0.23-1.3c0.23-1.26,0.46-2.52,0.66-3.78
		c4.96-1.36,9.87-2.89,14.76-4.51c0.15,2.48,0.54,4.93,1.14,7.26c2.85,9.34,7.35,9.41,15.57,9.36
		C690.85,362.58,690.8,362.62,690.75,362.65z"/>
	<path class="st2" d="M2600.97,351.44c-1.09-3.14-2.26-6.27-3.6-9.31c-0.68-1.21-1.42-2.39-2.18-3.55c-1.41-2.3-2.89-4.57-4.51-6.72
		c-2.71-3.27-5.94-6.39-9.65-8.47c-2.61-0.94-5.37-1.81-8.14-2.07c-3.07,0.39-6.21,1.21-9.04,2.48c-0.13,0.09-0.25,0.18-0.38,0.27
		c-0.14-1.46-0.26-2.92-0.42-4.38c-1.22-7.83-2.99-15.63-6.45-22.78c-2.49-3.95-5.16-8.53-9.21-10.8c0.1-1.03,0.14-2.06,0.11-3.09
		c0.01-2.19,0.07-4.38,0.1-6.58c0.14-11.55,0.91-23.17-0.47-34.68c-0.7-3.91-1.62-8.21-3.59-11.78c-1.38-3.53-3.22-6.92-6.25-9.24
		c-3.41-3.27-8.9-3.51-13.35-4.42c-3.18-0.53-6.37-1.04-9.55-1.58c-0.04,0-0.09,0-0.13,0c-10.41,0.68-20.8,2.9-31.15,2.43
		c-1.97,0.25-3.94,0.51-5.91,0.75c-1.67,0.2-2.85-0.63-3.5-1.84c-1.43,3.33-2.27,6.85-2.76,10.44c-1.7,7-1.64,14.46-0.81,21.56
		c0.06,0.54,0.14,1.09,0.23,1.63c0.03,2.29,0.08,4.6,0.2,6.89c-1.31,8.25-2.05,16.7-2.15,24.99c0.21,10.18,1.04,20.41,2.33,30.52
		c0.6,5.28,1.19,10.56,1.69,15.85c0.42,4.92,0.84,9.93,2.5,14.59c0.7,2.99,1.86,5.73,3.49,8.24c-0.81,4.84-1.72,9.67-2.69,14.49
		c-1.84,8.07-3.97,16.06-6.25,24.02c-3.94,13.41-7.5,26.93-11.29,40.39c-0.95,0.54-1.85,1.15-2.72,1.81
		c-0.05-2.11-0.11-4.22-0.16-6.34c-0.07-7.71,0.45-15.41,0.75-23.11c0.79-12.16-0.12-1.89,1.79-25.82c0.32-3.89,0.64-7.79,0.72-11.7
		c-0.03,0.39-0.05,0.78-0.08,1.18c0.13-6.08-0.48-12.14-2.04-18.06c-0.77-3.3-2.14-6.29-4.12-8.97c-0.6-1.33-1.44-2.45-2.52-3.36
		c0.1-0.03,0.19-0.06,0.29-0.09c1.35-1.14,2.71-2.29,4.06-3.43c1.09-1.86,2.53-3.52,3.5-5.44c0.89-2.3,1.77-4.59,2.66-6.89
		c1.44-5.69,2.11-11.32,2.32-17.17c0.13-4.45-0.36-8.82-1.46-13.11c-0.33-2.62-1.06-5.12-2.19-7.51c-0.6-2.25-1.62-4.28-3.05-6.1
		c-0.82-1.84-2.07-3.29-3.75-4.38c-1.69-1.92-3.88-2.9-6.55-2.93c-2.52,0.04-5.03,0.08-7.55,0.11c-5.71-0.19-11.42-0.6-17.09-1.14
		c-0.31-0.72-0.64-1.44-0.99-2.15c-3.41-5.48-5.86-10.02-13.04-10.26c-1.19-0.08-2.38-0.16-3.57-0.23
		c-9.9-0.83-19.69-2.63-29.47-4.42c0.72-6.44,0.56-12.98-0.1-19.44c-0.89-5.47-2.16-11.32-4.45-16.55
		c-0.47,0.47-1.08,0.82-1.82,0.94c-10.75,1.74-25.59-0.33-32.56-9.58c-0.1-0.13-0.17-0.26-0.25-0.39c-3.77,1.21-7.6,2.21-11.55,2.32
		c-1.44,0.04-2.38-0.69-2.83-1.67c-10.4,9.07-16.57,22.12-18.61,35.68c0.25,1.74-0.85,3.68-2.65,4.36
		c-7.06,2.66-14.65,3.61-22.16,3.02c-3.5,0.94-7.08,1.64-10.6,2.57c-0.52,0.14-1.01,0.15-1.49,0.09c-2.58,0.89-5.19,1.7-7.85,2.3
		c-2.41,0.54-4.36-0.55-5.32-2.22c-1.12,0.93-2.24,1.87-3.34,2.82c-0.91,1.39-1.85,2.77-2.72,4.18c-1.13,0.36-2.24,0.75-3.36,1.18
		c-1.45,1.22-2.9,2.45-4.34,3.67c-0.01,0.01-0.02,0.03-0.04,0.04c-2.63-0.18-5.28,0.11-7.82,1.05c-5.12,2.65-6.1,8.96-6.22,14.21
		c-0.03,2.59,0.44,5.32,1.41,7.82c-0.07,0.34-0.14,0.67-0.19,0.98c-0.05,0.36-0.1,0.72-0.15,1.08c-0.73,2.01-1.1,4.18-1.5,6.29
		c-0.38,1.76-0.72,3.53-0.92,5.32c-0.66,7.56-1.53,15.32,0.29,22.77c2.37,7.44,6.21,8.4,9.16,5.81c0.22,0.17,0.41,0.36,0.65,0.51
		c2.36,1.08,4.99,0.17,6.51-1.77c0.93,0.91,1.98,1.71,3.16,2.39c2.35,0.73,4.77,1.57,7.23,1.81c0.74,0.01,1.48-0.02,2.22-0.04
		c6.93,2.64,14.54,3.4,21.91,3.82c0.29,0.01,0.59,0.02,0.88,0.03c-0.11,0.18-0.23,0.35-0.34,0.53c-0.54,0.86-1.06,1.74-1.57,2.63
		c-3.74,3.54-7.09,7.5-9.88,11.82c-0.42,0.63-0.83,1.26-1.25,1.89c-0.81,0.67-1.6,1.36-2.39,2.04
		c-6.51,5.56-10.85,13.23-13.58,21.26c-0.06,0.2-0.11,0.41-0.17,0.61c-1.35,3.49-2.87,6.94-3.82,10.56
		c-1.19,5.73-2.75,11.42-3.23,17.26c-0.35,6.01-1.06,12.02-0.86,18.05c0.35,5.07,0.53,10.17,1.14,15.21
		c0.38,2.13,0.79,4.25,1.21,6.38c1.35,0.53,2.49,1.67,2.71,3.44c0.26,2.11,0.72,4.14,1.31,6.11c0.25,0.06,0.5,0.11,0.74,0.18
		c0.74-0.59,1.64-0.95,2.55-0.91c7.93,0.36,17.95,5.74,20.15,13.71c5.46,4.56,10.14,10.2,13.81,15.97c0.52,0.82,0.72,1.69,0.69,2.54
		c1,1.26,1.57,3.03,1.28,4.61c1.52,1.64,2.19,4.2,1,6.31c-0.22,0.39-0.37,0.83-0.48,1.27c0.03,0.37,0.05,0.75,0.07,1.13
		c3.01-0.13,5.99-0.93,8.91-1.75c-0.51,1.95-0.96,3.92-1.37,5.9c-0.76,3.11-1.38,6.24-1.9,9.38c-0.69,1.82-1.34,3.65-1.87,5.52
		c-0.55,2.15-1.02,4.33-1.48,6.5c-1.11,4.05-1.87,8.14-2.07,12.33c-0.67,9.04-1.25,18.1-0.68,27.16c0.52,7.59,0.82,15.23,1.94,22.77
		c1.94,11.85,4.53,23.61,7.5,35.24c1.4,5.36,3.27,10.57,5.49,15.66c2.11,2.89,3.44,6.53,6.6,8.46c2.12,2.19,4.86,3.38,7.87,3.64
		c0.64,1.53,1.32,3.03,2.02,4.52c14.26,0.2,24.25,12.08,36.01,18.72c0.95,0.5,1.9,0.99,2.85,1.48c1.18,0.61,1.85,1.47,2.12,2.4
		c1.87-1.36,3.54-3.04,5.32-4.48c0.72-0.75,1.4-1.55,2.06-2.37c2.21,1.24,4.49,2.36,6.86,3.31c19.86,7.35,36.98,7.15,56.67-0.67
		c8.22-3.29,15.11-8.95,21.75-14.68c0.55,0.18,1.1,0.35,1.68,0.48c3.23,0.83,6.43,1.99,9.8,1.88c4.74-0.31,9.53-1.16,13.84-3.28
		c0.21-0.11,0.4-0.24,0.61-0.36c1.87,1.36,3.79,2.65,5.77,3.84c6,3.3,12.69,5.63,19.51,6.33c4.16,0.19,8.19-1.12,12.16-2.19
		c2.29-0.62,4.53-1.46,6.67-2.49c6.92-3.39,12.74-8.75,17.5-14.75c3.63-4.35,6.77-9.15,9.39-14.17c1.66-3.46,2.92-7.1,4.32-10.67
		c3.09-7.9,4.87-16.28,5.97-24.67c1.62-16.38,1.26-32.96-1.15-49.25c-0.61-3.85-1.41-7.68-2.24-11.49
		c-0.98-4.85-2.11-9.67-3.51-14.41c-2.8-8.88-5.66-17.88-10.03-26.13c-0.22-0.35-0.45-0.71-0.67-1.06c0.13-1.96,0.23-3.92,0.36-5.86
		c0.11-4.5,0.17-9,0.21-13.5c0.95-1.3,1.77-2.72,2.46-4.26c0.51-1.33,1.03-2.66,1.54-3.98l0.91,0.24c2.96-0.23,5.83-1.03,7.67-3.31
		c2.71-1.86,4.04-4.89,5.86-7.52c1.53-2.31,2.56-4.88,3.07-7.71c2.19-6.81,3.21-13.78,3.84-20.82c0.53,0.13,1.06,0.26,1.56,0.43
		c1.83,0.01,3.58-0.39,5.27-1.27c2.6-2.01,5.14-4.05,6.68-7.02c0.81-0.98,1.43-2.07,1.96-3.21c0.09,0.01,0.18,0.03,0.27,0.04
		c2.91-0.4,5.82-1.27,8.43-2.63c2.06-1.13,3.69-2.88,5.52-4.33c1.09-1.15,2.07-2.39,2.95-3.68c0.96-0.23,1.9-0.81,2.81-1.75
		c2.41-2.95,3.2-6.78,3.88-10.44c0.43-2.67,0.58-5.37,0.56-8.06c0.01-0.08,0.03-0.16,0.04-0.24
		C2605.31,374.39,2604.01,362.66,2600.97,351.44z M2365.99,553.8c-1,0.07-2,0.05-2.99-0.07c-0.28-0.54-0.55-1.09-0.81-1.64
		c-0.27-0.85-0.53-1.71-0.77-2.58c0.67-0.7,1.36-1.39,2.05-2.07c0.61-0.38,1.24-0.72,1.88-1.03c0.18-0.01,0.35-0.04,0.53-0.05
		c0,0.01,0.01,0.02,0.01,0.02c0-0.01-0.01-0.02-0.01-0.02h0c0.38,0.94,0.77,1.88,1.16,2.81c0.38,1.1,0.74,2.21,1.08,3.32
		C2367.43,552.97,2366.72,553.41,2365.99,553.8z M2407.55,557.84c-0.57,0.78-1.12,1.58-1.68,2.37c0-0.43,0.01-0.87,0-1.3
		c0.05-1.06,0.09-2.13,0.12-3.19c0.51,0.71,1.04,1.41,1.58,2.1C2407.57,557.82,2407.56,557.83,2407.55,557.84z M2410.2,492
		c-0.35-0.66-0.71-1.32-1.11-1.96c0.45-0.4,0.88-0.81,1.32-1.23C2410.35,489.87,2410.27,490.93,2410.2,492z M2428.63,347.98
		c-0.6-2.54-1.34-5.04-2.45-7.43c-0.37-0.98-0.73-1.96-1.13-2.93c2.9-0.07,5.79-0.18,8.69-0.3
		C2431.43,340.59,2429.84,344.21,2428.63,347.98z"/>
	<path class="st3" d="M1243.26,498.02c-0.39-6.86-0.78-13.72-2.52-20.4c-1.09-6.6-3.25-12.88-5.82-19.03
		c-1.4-3.74-3.87-6.95-6.02-10.28c-1.92-2.52-4.68-4.28-7.02-6.39c-1.14-0.92-2.32-1.82-3.6-2.53c-1.07-0.57-2.19-1.05-3.34-1.46
		c-0.57-7.78-2.11-15.44-3.84-23.06c-1.7-8.58-4.77-16.78-8.01-24.88c-1.49-3.77-3.25-7.46-5.48-10.86
		c-2.16-3.21-4.07-6.66-6.56-9.63c1.08-0.25,2.15-0.55,3.21-0.92c2.92-1.69,5.13-4.01,6.62-6.97c1.64-2.08,2.81-4.41,3.49-6.98
		c0.22-0.49,0.42-0.98,0.62-1.48c2.64,0.39,5.28,0.78,7.93,1.18c3.04,0.51,6.6,0.45,9.13-1.33c1.55-1.31,3.1-2.62,4.65-3.92
		c2.52-2.99,4.34-6.33,5.46-10.03c1.29-2.73,2.13-5.59,2.5-8.59c2.94-11.34,1.67-23.37-0.98-34.65c-0.93-4.02-2.61-7.66-5.01-10.92
		c-1.49-2.95-3.7-5.28-6.62-6.97c-6.8-2.29-14-3.34-21.03-4.78c-9-1.65-17.95-3.55-26.98-4.99c-11.19-1.57-22.48-2.5-33.76-2.99
		c-17.11-0.29-34.2,1.16-51.2,2.98c-13.18,1.56-26.54,2.76-39.43,5.99c-0.95,0.48-1.83,1.1-2.65,1.84
		c-4.28,0.88-8.53,1.94-12.72,3.17c-0.16-0.83-0.34-1.66-0.56-2.48c-1.24-5.48-5.18-10.13-10.96-10.75
		c-5.32-0.19-10.43,3.37-12.34,8.3c-2.36,5.35-3.12,11.33-2.36,17.12c0.2,1.92,0.67,4.18,1.43,6.37c0.41,1.56,0.95,3.1,1.63,4.57
		c0.3,0.61,0.65,1.22,1.03,1.81c-0.94,2.36-1.92,4.72-2.46,7.21c-0.94,4.46-2.05,8.9-2.65,13.43c-0.61,6.75-1.03,13.51-1.34,20.28
		c-0.21,4.94-0.34,9.89-0.58,14.82c-0.42,5.18-0.86,10.37-1.46,15.53c-2.03,18.96-4.43,38.25-2.78,57.3
		c-0.25,0.47-0.52,0.94-0.75,1.42c-1.49,3.75-3.18,7.46-4.08,11.4c-0.79,4.23-2.08,8.4-2.38,12.71c-0.6,7.2-1.03,14.4-0.23,21.61
		c0.27,4.09,0.43,8.2,1.35,12.2c1.46,6.61,2.54,13.34,4.74,19.76c1.97,4.95,3.51,10.14,6.29,14.71c2.46,3.71,4.6,7.72,7.7,10.96
		c1.62,1.52,3.38,2.88,5.06,4.33c2.2,2.02,5.38,2.38,8.18,3.03c2.12-0.02,4.18-1.03,6.26-1.45c2.03-1.23,3.78-2.83,5.44-4.55
		c0.2-0.27,0.4-0.55,0.6-0.83c0.46-0.13,0.92-0.27,1.37-0.44c1.33,1.05,2.74,1.96,4.22,2.76c0.71,0.86,1.58,1.45,2.62,1.72
		c0.29,0.07,0.58,0.15,0.87,0.23c0.94,2.69,2.3,5.22,4.18,7.42c3.47,3.71,8.36,4.27,13.11,5.14c4.71,0.96,9.46,1.71,14.17,2.65
		c0.4,0.12,0.79,0.21,1.2,0.24c1.22-0.02,2.21-0.46,2.98-1.33c0.13-0.09,0.24-0.2,0.36-0.29c0.01,0,0.01,0,0.02,0
		c2.58,0.97,4.94,0.9,7.46,0.12c0.6,3.53,1.68,6.98,3.16,10.23c1.75,3.08,4.11,6.67,7.8,7.4c4.15-0.58,5.64-5.08,6.2-8.7
		c0.01-0.06,0.01-0.11,0.02-0.17c2.64,0.94,4.56-0.1,5.88-2.14c2.42,3.77,5.04,7.45,8.47,10.38c2.81,2.25,5.32,5.01,8.73,6.35
		c9.27,3.25,19.55,5.99,29.29,3.35c4.77-1.22,9.57-2.5,13.85-5.01c3.13-1.89,6.05-4.12,8.83-6.51c3.93,0.55,7.9,0.6,11.84-0.21
		c5.47-1.25,11.08-2.49,16.06-5.14c5.19-2.85,9.68-6.89,13.89-11.02c3.41-3.88,6.03-8.41,8.68-12.81c2.07-4.22,3.6-8.69,5.22-13.1
		c1.19-4.77,2.26-9.6,2.96-14.47C1242.8,509.08,1243.49,503.55,1243.26,498.02z M1144.6,368.62c0.03-0.8,0.05-1.6,0.08-2.4
		c0.84,0.16,1.68,0.31,2.52,0.46C1146.32,367.3,1145.45,367.95,1144.6,368.62z"/>
	<path class="st3" d="M1337.46,556.51c-1.07-3.54-2.81-6.73-5.22-9.58c-1.48-1.25-2.96-2.5-4.44-3.75c-0.59-0.31-1.15-0.54-1.7-0.74
		c0.89-0.66,1.72-1.47,2.45-2.45c2.87-3.64,4.9-7.71,6.1-12.2c2.67-8.6,3.25-17.67,3.21-26.63c0.09-10.6-0.47-21.18-1.01-31.76
		c-1.6-28.89-3.73-57.75-6.27-86.57c-0.42-5.73-1.22-11.41-2.28-17.05c0.92-5.06,1.81-10.12,2.59-15.21
		c1.78-18.24,3.03-36.54,3.92-54.84c0.71-14.04,1.28-28.08,1.77-42.13c0.17-6.49,0.75-13.08,0.17-19.54
		c-4.6-1.78-8.84-4.36-12.23-7.77c-3.62-0.18-7.19-0.6-10.55-1.06c-10.15-1.4-20.34-3.8-29.64-8.18c-0.12-0.06-0.22-0.12-0.32-0.18
		c-10.69-0.55-21.39-2.23-31.81-4.13l-1.29,1.99c-1,2.59-2,5.19-3,7.78c-0.65,3.06-1.29,6.12-1.94,9.18
		c-0.8,5.11-0.92,10.22-0.34,15.33c-0.02,3.3,0.42,6.53,1.31,9.7c0.29,2.36,0.89,4.63,1.76,6.82c0.06,3.45,0.15,6.9,0.28,10.35
		c0.2,6.35,0.55,12.69,1.03,19.03c0.17,8.03,0.42,16.06,0.72,24.08c0.75,9.66,0.66,19.51,2.43,29.05c0.93,5.84,1.86,11.71,3.45,17.4
		c-4.32,19.88-7.47,40-9.1,60.29c-0.8,10.69-1.38,21.52-2.13,32.23c0.1,9.92-0.02,19.86,0.63,29.77
		c1.03,14.18,1.63,28.61,2.83,42.74c2.18,15.39,3.55,30.91,6.73,46.13c0.19,0.97,0.4,1.93,0.6,2.9c-0.23,0.45-0.47,0.9-0.68,1.36
		c-2.14,5.17-4.37,10.37-5.77,15.8c-1.13,5.46-2.55,10.88-3.2,16.43c-0.33,4.31-0.65,8.63-0.88,12.95
		c-0.06,4.59,0.41,9.17,0.74,13.74c0.52,5.67,1.93,11.26,3.28,16.78c0.02,0.04,0.03,0.08,0.05,0.13c0.09,0.43,0.18,0.86,0.27,1.29
		c1.03,3.77,2.69,7.37,4.09,11.02c1.44,2.63,3.23,5.07,4.82,7.62c1.56,2.09,3.82,3.51,5.73,5.25c0.18,0.14,0.38,0.27,0.57,0.4
		c0.71,0.59,1.42,1.17,2.18,1.7c1.61,0.95,3.47,1.28,5.25,1.79c3.18,0.96,6.56,1.76,9.84,0.81c3.9-1.02,7.91-1.9,11.37-4.05
		c4.65-3,8.77-6.71,12.34-10.89c6.1,5.31,15.06,3.72,19.45-4.87c0.54-0.7,1.03-1.44,1.48-2.19c0.89-0.67,1.72-1.47,2.46-2.42
		c8.2-10.3,8.54-24.01,10.07-36.54c2.09-18.02,3.76-36.37,1.17-54.42C1340.35,564.74,1339.24,560.52,1337.46,556.51z"/>
	<path class="st3" d="M2202.8,484.8c-0.1-1.14-0.2-2.27-0.32-3.41c-0.88-8.18-1.96-16.34-2.82-24.52
		c-0.49-5.07-1.01-10.14-1.9-15.15c-0.35-0.21-0.71-0.42-1.06-0.63c-1.5,2.81-5.32,4.41-7.94,1.38c-4.25-3.96-8.51-8.05-12.14-12.6
		c-0.02-0.01-0.03-0.01-0.05-0.02c-0.64-0.25-1.2-0.6-1.68-1.01c-0.76,1.33-1.37,2.76-1.8,4.2c-1.61,3.73-2.43,7.65-2.8,11.65
		c-0.18-0.12-0.37-0.24-0.56-0.36c-3.62-2.15-7.75-3.28-11.76-4.45c-7.09-1.95-14.25-3.78-21.57-4.63
		c-7.05-0.89-14.13-1.45-21.22-1.72l2.65-2.24c2.53-2.99,4.35-6.34,5.47-10.05c0.23-0.5,0.43-1.01,0.63-1.52
		c2.31,0.79,4.83,0.73,7.34-0.71c7.95-5.1,10.6-15.13,11.98-23.97c1.07-13.5,0.99-27.07,1.11-40.61c0.09-5.24,0.16-10.48,0.21-15.71
		c0.4-11.22,0.88-22.44,1.31-33.66c0.47-16.16,2.27-32.33,0.86-48.48c-0.16-2.42-0.45-4.84-0.84-7.23
		c-8.67-0.93-17.37-2.56-23.75-8.37c0,0-0.01-0.01-0.01-0.01c-4.33-0.96-8.58-2.2-12.68-4.03c-1,0.74-2.01,1.66-3.02,2.78
		c-1.38,2.12-2.75,4.24-4.11,6.36c-0.25,0.53-0.48,1.07-0.71,1.62c0.06-0.14,0.11-0.29,0.17-0.43c-0.06,0.16-0.13,0.32-0.19,0.48
		c-0.48,1.14-0.93,2.29-1.37,3.45c-4.11,0.07-8.23,0.47-12.33,0.56c-6.33,0.22-12.67,0.18-19,0.19
		c-12.28-0.01-24.56-0.14-36.84-0.33c-0.59-0.9-1.37-1.61-2.41-2.11c-1.16-0.85-2.09-2.14-3.53-2.51
		c-11.74-3.47-24.14-3.95-36.32-3.97c-14.78,0.17-29.57,0.57-44.32,1.44c-0.12,0.01-0.24,0.01-0.36,0.02
		c-4.31-4.03-9.78-6.51-15.5-7.9c-4.21-1.13-8.42-2.41-12.78-2.84c-5.81-0.25-11.64-0.42-17.45-0.13
		c-5.4,0.27-10.79,1.66-15.69,3.92c-2.57,1.27-4.6,3.41-6.78,5.24c-10.16,12.52-11.81,29.89-9.93,45.41
		c1.36,9.51,5.39,24.28,15.38,27.8c5.86,1.71,11.84,2.89,17.86,3.9c0.38,0.55,0.77,1.08,1.17,1.6c3.62,5.08,9.83,5.67,15.56,5.88
		c7.24,0.08,14.48-0.33,21.69-0.9c2.31-0.18,4.63-0.37,6.94-0.55c10.44,0.79,20.91,1.25,31.37,1.48c1.57,0.13,3.14,0.26,4.71,0.37
		c13.71,0.79,27.46,0.76,41.19,1c12.06,0.34,24.13,0.63,36.2,0.68c2.42,0,4.85,0.02,7.27,0.03c-1.55,13.28-2.88,26.58-4.32,39.87
		c-0.8,9.71-2.98,19.46-2.18,29.22c0.04,0.92,0.08,1.84,0.14,2.76c0,0.03,0,0.07,0.01,0.1c0.37,6.24,1.16,12.47,3.78,18.17
		c1.04,3.43,2.73,6.53,5.07,9.3c2.54,2.2,5.18,4.84,8.35,4.98c0.25,0.13,0.53,0.22,0.86,0.21c1.59,0.6,3.5-0.05,4.7-1.19
		c0.39-0.33,0.75-0.69,1.07-1.07c0.09-0.07,0.17-0.14,0.26-0.22c0.24,0.83,0.52,1.66,0.82,2.47c-6,0.43-12,1.05-17.96,1.83
		c-13.02,1.74-25.97,4.05-39,5.68c-12.27,1.28-24.59,1.97-36.93,1.68c-14.77-0.05-29.34-2.63-43.92-4.75
		c-11.66-1.7-23.38-2.98-35.14-3.75c-13.72-1.1-27.45,0.08-41.16,0.8c-6.41,0.36-12.83,0.53-19.25,0.6
		c-4.11,0.1-8.26-0.17-12.34,0.45c-3.08,0.52-6.09,1.37-9.07,2.26c-2.5,1.67-4.64,3.72-6.43,6.03c-0.13,0.04-0.27,0.07-0.4,0.11
		c-3.18,0.82-7.27,1.8-8.28,5.37c-0.63,2.49-0.68,7.27,2.37,8.08c0.02,0,0.04,0,0.05,0.01c-3.87,15.1-3.37,31.99,3.31,46.21
		c2.76,4.13,4.88,8.93,9.5,11.35c2.49,1.88,5.59,2.8,8.47,3.89c4.32,1.58,8.76,2.78,13.21,3.95c22.44,5.78,45.42,9.13,68.46,11.32
		c14.41,1.3,28.87,2.37,43.35,2.9c-1.31,3.48-2.5,7-3.55,10.56c-1.71,6.6-3.11,13.3-4.25,20.03c-0.88,6-1.07,12.08-1.52,18.13
		c-0.65,8.31-0.01,16.62,0.59,24.9c0.33,5.14,1.04,10.26,2.09,15.3c1.71,9.11,3.95,18.11,7.57,26.66c1.66,4.65,3.6,9.17,6.52,13.18
		c1.38,2.06,2.56,4.29,4.41,5.99c3.6,3.33,7.38,6.83,12.41,7.61c5.88,2.2,12.09,0.8,17.82-1.17c1.59-0.58,2.99-1.6,4.26-2.69
		c3.91-3.11,7.76-6.49,10.53-10.72c2.58-3.93,5.25-7.77,7.37-11.95c2.21-4.37,3.77-9.02,5.56-13.57
		c5.06-13.98,8.45-28.55,10.73-43.23c1.63-13.33,2.39-26.79,2.26-40.22c-0.23-9.03-0.56-18.09-1.45-27.08
		c2.75-0.65,5.5-1.31,8.24-1.99c21.87,2.82,43.87,4.99,65.95,4.36c10.78-0.3,21.48-1.8,32.14-3.44c4-0.79,7.98-1.67,11.88-2.84
		c3.92-1.06,8.13-2,10.99-5.09c2.44-1.6,4.12-3.84,5.43-6.35c0.18,0.44,0.35,0.88,0.54,1.31c0.94,2.37,2.42,4.27,4.43,5.7
		c0.89,1.15,2.04,1.77,3.48,1.88c1.83,0.82,3.66,0.66,5.49-0.49c5.13-3.69,7.98-9.81,8.93-15.95
		C2204.42,499.71,2203.89,492.14,2202.8,484.8z"/>
	<g>
		<path class="st4" d="M1660.75,495.65c-4.07-0.37-8.04-1.64-11.75-3.45c0.19-0.35,0.37-0.71,0.54-1.09
			c1.18-1.79,2.13-3.73,2.88-5.74c2.5-5.98,4.27-11.89,5.65-18.05c1.85-4.67,3.79-9.33,4.84-14.26c0.9-4.36,1.98-8.69,2.6-13.1
			c0.69-5.51,1.05-11.09,1.21-16.65c-0.18-7.79-1.2-15.51-3.3-23.01c-1.22-3.03-2.26-6.13-3.59-9.11c-1.39-2.23-2.86-4.42-4.27-6.64
			c-0.87-1.13-2.12-1.91-3.16-2.87c-0.81-0.98-1.77-1.72-2.88-2.24c-2.83-0.7-5.73-1.92-8.64-1.55c-1.03-0.86-2.08-1.69-3.13-2.51
			c-2.03-1.29-4.56-1.64-6.87-2.19c-1.82,0.32-3.62,0.89-5.39,1.41c-1.95,1.11-3.51,2.8-5.26,4.2c0.58-1.44,1.12-2.9,1.62-4.36
			c-0.25,0.66-0.51,1.31-0.76,1.97c0.25-0.67,0.51-1.34,0.77-2.01c0.47-1.39,0.92-2.79,1.32-4.19c0.81-0.7,1.61-1.4,2.43-2.09
			c0.55-0.48,1.05-1.02,1.43-1.65c2.22-3.29,4.57-6.57,6-10.3c1.18-3.14,2.49-6.24,3.58-9.42c0.83-3.33,1.43-6.72,2.18-10.08
			c0.83-5.11,0.9-10.34,1.21-15.51c0.07-6.63-0.56-13.25-1.08-19.86c-0.48-4.57-1.72-9.02-2.59-13.53
			c-1.32-5.11-3.48-9.99-5.48-14.85c-1.87-3.89-4.39-7.42-6.74-11.02c-1.08-1.53-2.4-2.87-3.78-4.14c-0.29-0.57-0.61-1.12-0.96-1.65
			c-1.66-2.43-3.08-5.04-4.9-7.35c-2.17-2.22-4.59-4.32-7.28-5.89c-1.92-0.74-3.9-1.3-5.94-1.67c-1.2-0.26-2.4-0.17-3.59,0.08
			c-7.57-4.48-15.52-8.32-23.71-11.56c-3.55,0.57-7.23,0.22-11.1-0.56c-2.63-0.53-3.61-2.52-3.39-4.51c-1.62-0.5-3.24-1-4.86-1.48
			c-10.02,1.67-20.12,2.88-30.24,3.63c-1.89,0.19-3.78,0.31-5.67,0.38c-0.61,0.02-1.17-0.05-1.66-0.19c-0.7,0.15-1.39,0.3-2.08,0.44
			c-7.14,1.46-14.47,2.5-21.82,3.06c-7.38,2.66-14.5,5.8-21.15,9.06c-11.21,5.49-23.82,12.48-34.13,21.47
			c-0.12,1.97-0.75,4.12-1.94,6.36c-3.9,7.29-10.49,13.75-16.77,19.03c-1.55,1.3-3.83,1.38-5.55,0.57
			c-1.35,6.45-2.42,12.95-2.6,19.57c-0.74,6.53-0.19,13.07,0.3,19.6c0.16,2.66,0.58,5.29,1.05,7.9c1.17,5.12,1.88,10.37,3.5,15.38
			c1.01,2.62,2.02,5.24,3.04,7.86c1.31,2.22,2.82,4.33,4.19,6.51c1.38,1.66,2.98,2.99,4.8,4.01c1.85,0.58,3.76,1.11,5.66,1.51
			c1.72-0.46,3.44-0.93,5.16-1.39c0.32-0.27,0.65-0.54,0.97-0.8c0.87,2.24,1.81,4.46,2.8,6.64c1.28,2.21,2.62,4.4,4.01,6.55
			c-1.18,0.42-2.35,0.87-3.51,1.33c-5.73,2.56-10.6,6.58-15.3,10.66c-0.32,0.27-0.61,0.56-0.87,0.89c-1.54,2.54-3.41,4.9-4.72,7.57
			c-0.02,0.06-0.05,0.13-0.07,0.19c-1.88-4.32-5.66-8.95-10.38-6.73c-1.4,0.39-2.29,1.5-3.27,2.55c-2.28,3.11-3.8,6.69-4.67,10.44
			c-3.04,12.6-2.69,25.91-0.56,38.62c4.45,24.64,14.91,26.73,21.07,15.84c1.28,2.05,2.49,4.17,4.14,5.93
			c3.66,3.11,7.18,6.58,11.68,8.46c5.39,2.14,11.05,3.68,16.8,4.55c1.52,2.5,3.13,4.94,4.95,7.22c4.86,5.01,10.49,9.71,17.4,11.43
			c6.24,1.9,12.69,3.19,19.24,2.93c1.47-0.05,2.94-0.16,4.4-0.3c1.63,5.88,4.28,11.43,8.13,16.22c1.06,1.54,2.31,2.7,3.76,3.48
			c0.4,0.94,0.82,1.88,1.29,2.8c3.55,5.62,6.27,10.95,13.76,11.4c3.92-0.71,7.96-1.45,11.6-3.1c3.3-1.68,6.13-4.11,8.98-6.44
			c13.49-10.9,24.64-24.3,36.73-36.67c6.42-6.31,12.61-12.85,19.26-18.92c0.61-0.56,1.24-1.09,1.86-1.63
			c0.97,2.03,2.15,3.95,3.77,5.62c1.63,2.08,3.85,3.74,6.22,4.99c0.82,0.31,1.64,0.56,2.47,0.79c1.34,1.95,2.83,3.77,4.81,5.16
			c0.25,2.45,0.87,4.74,1.74,6.45c4.67,8.96,15.67,11.85,25.1,10.75c7.3-0.4,14.03-3.62,18.32-9.64
			C1667.6,494.89,1664.26,496.07,1660.75,495.65z M1541.19,318c-0.87,0.83-1.76,1.66-2.65,2.47c-5.47,4.35-11.72,7.71-18.35,9.91
			c-0.4,0.13-0.8,0.23-1.2,0.36c-3.44,0.77-6.94,1.29-10.44,1.66c-2.49-1.06-4.87-2.18-7.11-3.34c9.47-6.26,19.34-11.99,29.78-16.45
			c3.19,0.06,6.36,0.32,9.48,0.93c1.24,0.41,2.47,0.85,3.68,1.34C1543.32,315.92,1542.25,316.96,1541.19,318z"/>
		<path class="st4" d="M1622.28,373.26c-0.15,0.38-0.3,0.77-0.44,1.15c0,0.01-0.01,0.03-0.01,0.04
			C1621.98,374.05,1622.13,373.65,1622.28,373.26z"/>
	</g>
	<path class="st4" d="M1756.34,601.55c0.02-3.32-0.42-6.58-1.32-9.78c-0.94-6.93-4.01-13.4-8.29-18.9c-2.05-1.57-3.8-3.65-6.17-4.73
		c-4.02-1.54-8.23-2.75-12.52-3.19c-2.12-0.16-4.23-0.06-6.33,0.23c6.31-7.78,8.34-17.87,9.61-27.59c0.75,0.3,1.7,0.32,2.42,0.04
		c1.19-0.11,1.95-1.18,2.84-1.86c0.32-0.38,0.62-0.78,0.91-1.21c0.75,0.41,1.58,0.7,2.49,0.85c6.4-0.62,8.3-9.31,9.33-14.54
		c0.69-8.16,0.95-16.36,0.63-24.54c-0.53-10.31-1.06-20.71-3.02-30.86c-0.1-1.31-0.56-2.51-0.94-3.75
		c-0.52-2.24-1.23-4.41-2.67-6.25c-2.45-4.29-5.76-4.82-8.54-3.23c0.14-7.7,0.33-15.4,0.66-23.09c2.35-52.62,2.96-53.1,6.45-99.45
		c1.33-19.6,3.94-39.19,3.57-58.85c-0.25-4.26-0.52-8.52-0.87-12.77c0.05,0.67,0.09,1.35,0.14,2.02c-0.11-1.53-0.21-3.07-0.34-4.6
		c-0.6-4.18-1.56-8.31-2.51-12.43c-1.79-5.9-4.39-11.48-8.25-16.34c-5.04-6.71-14.11-6.79-19.2,0c-0.47,0.38-0.86,0.84-1.21,1.33
		c-2.06-0.91-4.3-1.28-6.75-0.88c-2.53-4.32-5.05-8.83-9.04-11.93c-1.71-2.31-4.82-2.62-7.4-3.17c-1.76,0.41-3.7,0.78-5.3,1.59
		c-3.21,2.5-6.3,5.32-7.78,9.19c-0.08,0.18-0.15,0.36-0.22,0.54c-1.12-0.24-2.24-0.41-3.39-0.3l-3.86,1.04
		c-2.18,1.26-3.83,3-4.94,5.2c-1.23,1.56-2.09,3.29-2.61,5.21c-1.39,3.14-2.26,6.43-2.6,9.88c-0.68,8.44-0.89,17.44,2.6,25.33
		c0.84,2.91,2.4,5.45,4.31,7.82c0.77,0.81,1.61,1.55,2.48,2.28c-0.18,1.9-0.35,3.79-0.51,5.69c-0.01,0.13-0.02,0.26-0.03,0.4
		c-7.97,11.47-9.4,26.79-8.52,40.79c0.2,8.96,0.38,17.92,0.83,26.87c0.88,10.84,1,21.77,2.78,32.52c0.2,1,0.4,2,0.6,2.99
		c-0.12,2.31-0.24,4.62-0.35,6.93c-0.55,6.36-1.26,12.7-2.23,19c-3.45,0.15-6.86,1.85-9.33,5.15c-3.35,4.06-5.43,8.71-6.84,13.62
		c-2.3-1-4.76-1.65-7.18-2.29c-3.01-0.87-6.13-1.65-9.28-1.22c-4.62,0.92-9.39,2.16-13.13,5.18c-3.96,3.26-8.13,6.45-10.9,10.85
		c-0.01,0.02-0.03,0.04-0.04,0.06c-1.85,1.43-3.69,2.91-5.08,4.77c-1.46,2.38-3.16,4.62-4.47,7.09c-1.31,3.2-2.65,6.4-3.66,9.7
		c-2,6.62-2.37,13.49-2.76,20.34c-0.12,3.72,0.1,7.44,0.67,11.15c0.62,4.52,1.59,9.06,2.86,13.45c0.08,0.19,0.16,0.39,0.24,0.58
		c0.59,2.99,1.11,6,2.09,8.87c0.66,1.57,1.23,3.18,1.82,4.79c1.21-2.12,3.85-3.59,6.26-2.92c10.88,3.04,21.21,9.64,28.39,18.38
		c1.36,1.66,1.67,3.61,1.06,5.26c1.67-0.53,3.31-1.15,4.88-1.87c1.75-0.99,3.3-2.26,4.83-3.57c1.09,0.3,2.18,0.57,3.27,0.83
		c2.98,0.97,5.88-0.35,8.76-1.09c3.32-1.76,5.9-4.7,7.84-7.93c1.34,4,2.69,8,3.9,12.04c0.6,2.52,1.4,4.98,2.47,7.35
		c1.12,3.69,2.94,7.03,5.45,10.01c1.82,2.66,4.23,4.2,7.23,4.61c0.24,0.11,0.49,0.19,0.73,0.28c-15-0.59-29.99-1.16-45.01-1.11
		c-11.99-0.07-24,0.04-35.96,1.08c-4.48,0.43-9.05,0.45-13.43,1.57c-2.4,0.03-4.45,0.74-6.15,2.11c-1.54-0.32-3.08-0.66-4.62-1.03
		c-1.41-0.34-2.83-0.68-4.24-1.02c-5.63-1.59-11.31-3.07-16.73-5.27c-0.09-0.04-0.18-0.08-0.27-0.12c-0.4-3.24-1.04-6.46-1.9-9.6
		c-2.25-6.82-5.04-13.46-7.79-20.09c-1.95-4.63-4-9.21-6.1-13.77c-1.51-4.29-4.05-10.16-8.66-9.67c-0.97,0.13-1.9,0.44-2.74,0.91
		c-0.22-0.68-0.43-1.36-0.66-2.04c-1.58-5.02-3.53-9.95-6.53-14.29c0.1-5.34,0.3-10.7,0.15-16.04c1.08-1.92,2.22-3.81,3.28-5.74
		c-1.11,1.12-2.25,2.21-3.37,3.32c-0.26-5.47-0.95-10.89-2.54-16.2c-1.37-5.13-3.69-9.78-6.97-13.94c-7.13-8.83-17.26-5.7-22.1,3.71
		c-5.91,8.65-7.24,19.36-9.46,29.37c-1.02,4.94-1.83,9.93-2.47,14.93c-2.53,4.06-3.98,8.69-5.57,13.19
		c-2.75,9.69-4.89,19.62-5.25,29.72c-1.04,16.21-1.7,32.51-0.38,48.71c0.75,3.31,1,6.8,2.1,10c1,2.67,2.02,5.33,3.08,7.98
		c1.36,2.03,2.59,4.15,4.01,6.12c1.55,1.46,3.18,2.95,4.94,4.15c1.63,1.13,3.38,1.79,5.14,1.8c0.85,3.19,1.94,6.3,3.41,9.26
		c0.9,2.28,2.18,4.23,3.81,5.86c0.3,1.34,0.62,2.67,0.98,4c0.47,1.52,1,3.02,1.56,4.52c10.32,5.97,20.36,12.47,30.7,18.41
		c3.19,0.91,6.31,2.18,9.36,3.53c0.32-0.3,0.64-0.6,0.94-0.92c1.04,0.45,2.1,0.86,3.17,1.26c5.59,1.86,11.35,3.23,17.11,4.43
		c12.92,2.14,26.11,2.09,39.16,2.71c23.78,0.56,47.54,1.58,71.32,1.9c11.33,0.11,22.65,0.16,33.98,0.04
		c8.15-0.38,16.59-0.33,24.31-3.25c1.55-1.31,3.1-2.62,4.65-3.93c2.52-2.99,4.34-6.33,5.47-10.03c1.3-2.73,2.13-5.59,2.51-8.6
		c0.07-0.25,0.13-0.51,0.2-0.77c1.55-0.34,3.09-0.77,4.59-1.32C1754.58,636.93,1757.76,614.66,1756.34,601.55z M1705.92,569.4
		c-6.7-0.18-13.4-0.43-20.1-0.69c0.86-0.23,1.72-0.6,2.59-1.14c1.55-1.31,3.09-2.61,4.64-3.92c1.63-2.07,3.03-4.27,4.19-6.58
		c2.02,4.83,4.93,9.27,9.51,12.05C1706.46,569.21,1706.19,569.31,1705.92,569.4z"/>
</g>
<g id="레이어_3">
	<g>
		<path d="M278.6,667.6c-13,0-20.5-6-22-17.5h-0.5c-15,0-23-8.5-22-23l3.5-52.5c-10.5-2.5-18-9-23-17.5c-16.5-4.5-27-18.5-27-37.5
			v-41c0-14.5,8-22.5,22.5-22.5h35v-5c-14-1.5-24.5-8.5-30.5-19c-16.5-4.5-27-18.5-27-37.5v-41c0-14.5,8-22.5,22.5-22.5h43l3.5-61
			c1-14.5,9-22,23-22h47.5c14.5,0,25.5,7,31.5,18.5c10,2,17.5,8.5,22,17l1-13.5c1-14.5,9-22,23-22h47.5c14.5,0,25.5,7,31.5,18.5
			c17,4,27.5,19,26.5,38.5l-1.5,27c10.5,2.5,19,9,24,18c16.5,4.5,27,18.5,27,37.5v41c0,14.5-8,22.5-22.5,22.5h-35.5v5
			c14,1,25,8,31,19c16.5,4.5,27,18.5,27,37.5v41c0,14.5-8,22.5-22.5,22.5h-42.5l-2.5,47c-1.5,31-16.5,44.5-48,44.5h-40.5
			c-13,0-20.5-6-22-17.5h-0.5c-8.5,0-14-2.5-18-7c-6.5,17-20.5,24.5-44,24.5H278.6z M256.6,627.6h40c19.5,0,24.5-4.5,25.5-23.5l4-68
			h61.5l-6,91.5h40c19.5,0,24.5-4.5,25.5-23.5l4-68h63.5v-41c0-11-5.5-16.5-17-16.5h-43.5l4-67.5h56.5v-41c0-11-5.5-16.5-17-16.5
			h-36.5l4-67c0.5-10-4-16-13-16h-48l-5,83h-63l4-67c0.5-10-4-16-13-16h-48l-5,83h-64v41c0,11,5.5,16.5,17,16.5h43l-4,67.5h-56v41
			c0,11,5.5,16.5,17,16.5h35.5L256.6,627.6z M329.1,478.6l4-67.5h62l-4,67.5H329.1z"/>
		<path d="M809.6,671.1h-1.5c-14.5-1.5-21.5-10-21.5-24v-66c-56,6.5-123.5,9-186,6.5c-16-0.5-28-7.5-34.5-19.5
			c-17-5-27.5-18.5-27.5-38v-22.5c0-11.5,3.5-20,12-27.5c8-8,13-11.5,16-11.5l4,0.5v-116c-16.5-4.5-27-18.5-27-38v-38.5
			c0-14.5,8-22.5,22.5-22.5h192c11.5,0,21.5,3.5,28.5,10v-30c0-14.5,8-22.5,22.5-22.5h47c16,0,28.5,7,35,19
			c16.5,4.5,27,18.5,27,37.5v96.5c13,3,23,9,30,20c9.5,3,17,9,22.5,17.5c13,19.5,11.5,53-2,76c-5.5,10.5-14.5,13.5-26.5,13.5h-24
			v111.5c0,16,0.5,30-2.5,43.5c-7.5,35-38.5,46.5-85,42C818.6,687.6,811.6,681.1,809.6,671.1z M791.6,537.1v-38c0-11.5-7-17.5-20-16
			c-9,1.5-18.5,2.5-29,3.5l6-120.5c0.5-11.5-5.5-17.5-18-17.5h-39l-6.5,142c-11.5,0.5-23,1-35,1V364.1c0-11-5.5-16.5-18-16.5h-39
			v144c-10.5,0-21.5,0-32-0.5v39c0,11,5.5,17,18,17.5C643.1,550.1,725.1,547.6,791.6,537.1z M776.1,332.6v-38.5
			c0-11.5-6-17.5-18-17.5h-192v38.5c0,11.5,6,17.5,18,17.5H776.1z M809.1,648.6c39,4,57.5-3.5,62-24.5c3-13.5,2-29,2-51.5v-121h52.5
			c9.5-15,11.5-36,6.5-49.5c-6-15-19.5-20.5-59-13.5v-138c0-11-5.5-16.5-17-16.5h-47V648.6z"/>
		<path d="M1256.09,671.1h-1.5c-14.5-1.5-21.5-10-21.5-24v-55.5c-35,7-79,9-115,4.5c-40-5.5-68.5-17.5-87-37.5
			c-29-16.5-44.5-42.5-49-80.5c-5-47.5-1-129.5,10-199.5c2-13.5,10.5-20.5,24-20.5h172.5c16,0,28.5,7,34.5,19c3.5,1,7,2.5,10,4v-47
			c0-14.5,8-22.5,22.5-22.5h47c16,0,28.5,7,35,19c16.5,4.5,27,18.5,27,37.5v335c0,16,0.5,30-2.5,43.5c-7.5,35-38.5,46.5-85,42
			C1265.09,687.6,1258.09,681.1,1256.09,671.1z M1217.09,549.6v-33.5c0-11.5-6.5-17-18.5-15.5c-24,2.5-54.5,4-80,1.5
			c-34.5-3.5-52-19-54.5-49.5c0-3.5-0.5-8-0.5-13h132.5v-37c0-10.5-5.5-15.5-16-15.5h-116c0.5-19,1.5-38,3.5-52.5h137v-40
			c0-9.5-5.5-14-16-14h-174c-11.5,73.5-14.5,152.5-10,195c5.5,49,32,72,94,80.5C1139.09,561.1,1185.09,557.6,1217.09,549.6z
			 M1255.59,648.6c39,4,57.5-3.5,62-24.5c3-13.5,2-29,2-51.5v-322c0-11-5.5-16.5-17-16.5h-47V648.6z"/>
		<path d="M1498.08,646.6c-21.5-11.5-35-29-40-52.5c-4-18-4.5-44.5-1-70.5c1-8.5,5-14.5,11-17.5v-9l-17.5-0.5c-17.5,0-30-7-37-19.5
			c-17.5-5-28-19.5-28-41v-30c0-15,8-22.5,23-22l24.5,0.5c-17-15.5-26-37-26-63.5c0-61.5,49-101,123.5-101c42.5,0,76.5,13,98,35.5
			c7,4,13.5,9,19.5,14.5v-36c0-14.5,8-22.5,22.5-22.5h47c16,0,28.5,7,35,19c16.5,4.5,27,18.5,27,37.5v237.5c0,16,0.5,30-2.5,43.5
			c-2.5,12-8,21.5-16.5,28.5c15,5.5,24.5,19.5,24.5,38.5v32c0,13.5-6,22-19.5,25c-54,11-137.5,12.5-201.5,4.5
			C1535.08,673.6,1512.58,663.1,1498.08,646.6z M1490.58,510.1c40,4,62-2.5,66-22c1-7,1-17.5,1-25v-7.5c32.5-2,65-4.5,92-8v-31
			c0-12-8.5-17-20.5-16c-48,4.5-139.5,9-221,6v29.5c0,14,6,20.5,20.5,20.5c18.5,0.5,39.5,1,62,1V510.1z M1631.08,321.1
			c0-46-35.5-78.5-100.5-78.5c-65.5,0-101,32.5-101,78.5s34.5,71,101,71C1596.58,392.1,1631.08,367.1,1631.08,321.1z M1740.08,633.1
			v-34.5c0-14-8-20-21.5-18c-40,5.5-111.5,9.5-149.5,3c-18.5-3-28-11-30-20c-1-4.5-1-11.5-1-19.5c0-13-5.5-18.5-16.5-18.5h-42
			c-3,21.5-3.5,46,0.5,63.5c5.5,25.5,24.5,43,64.5,48.5C1605.58,645.6,1687.08,644.1,1740.08,633.1z M1488.58,316.1
			c0-17.5,15.5-28,42-28c26,0,42,10.5,42,28c0,18-16,26.5-42,26.5C1504.08,342.6,1488.58,334.1,1488.58,316.1z M1658.08,562.1
			c-1.5-1.5-3-3-4-4.5c-23-1.5-38.5-7.5-47.5-22c-5-2-9.5-4-13-7c-4,5-8.5,9.5-14.5,12.5c2.5,6,4,13,4,20.5v1c19.5,2,47.5,2.5,76,1
			L1658.08,562.1z M1670.58,551.1c39,4.5,57.5-3.5,62-24.5c3-13.5,2-29,2-51.5V250.6c0-11-5.5-16.5-17-16.5h-47v231h-66.5
			c-5.5,13.5-5.5,31-1.5,39.5c5,10,17.5,16,68,11.5V551.1z"/>
		<path d="M1968.58,665.6h-1.5c-14.5-1.5-21.5-10-21.5-24v-98h-89c-16,0-28.5-7-35-19c-16.5-4.5-27-18.5-27-37.5v-37.5
			c0-14.5,8-22.5,22.5-22.5h230.5v-76.5h-133.5c-15.5,0-27.5-7-33.5-19c-16-4-26.5-17-26.5-35.5v-40.5c0-14.5,8-22.5,22.5-22.5h240
			c15,0.5,26.5,7.5,32,19c16.5,4,26.5,17,26.5,35.5v28.5c0,13,0.5,91.5-2.5,107.5l-0.5,3.5c15,0.5,27,7.5,33,19
			c16.5,4.5,27,18.5,27,37.5v37.5c0,14.5-8,22.5-22.5,22.5h-129v58.5c0,13,0,27.5-2,38.5v1c-7.5,34.5-41,46-89,41.5
			C1977.58,682.1,1970.58,675.6,1968.58,665.6z M1968.08,643.1c40,4,61.5-3.5,66-24c2-11,1.5-26.5,1.5-42v-73.5h151.5v-37.5
			c0-11-5.5-16.5-17-16.5h-353v37.5c0,11,5.5,16.5,17,16.5h134V643.1z M2070.08,424.6c37,4,54.5-2.5,58-22.5c2.5-14,2-90.5,2-103.5
			v-28.5c0-9.5-4.5-14-14-14.5h-239.5v40.5c0,10,5,14.5,15,14.5h178.5V424.6z"/>
		<path d="M2638.57,434.1c-5.5,10.5-14.5,13.5-26.5,13.5h-1.5c-14,0-22-2-22.5-5c0,12,0,23.5-2.5,34.5c-2.5,10-6.5,18.5-12.5,25
			c7,6.5,11,16,11,27.5v101c0,11.5-3.5,20-13,27c-37,26-94,39-156,36c-45.5-2.5-79.5-15-100-37c-22-12.5-36-30.5-42.5-53.5
			c-6.5-26-5.5-71.5,3-110c1-3,2-5.5,3-7.5c-3.5-3-7-6-10-9.5c-28.5-15.5-44-42-44-76.5c0-20,5.5-37.5,15.5-52c-2.5-2.5-5-5.5-7-9
			c-16.5-4.5-27-18.5-27-37.5v-31.5c0-14.5,8-22.5,22.5-22.5h57.5l-0.5-2c-3-11.5-2-21.5,7.5-29c17.5-14,44.5-19,66-12.5
			c11.5,4,20,10.5,25.5,18.5c13,5.5,22,14,26.5,25h20c10.5,0,20,3,26.5,8.5v-21.5c0-14.5,8-22.5,22.5-22.5h46c16,0,28.5,7,35,19
			c16.5,4.5,27,18.5,27,37.5v52.5c13,3,23,9,30,20c9.5,3,17,9,22.5,17.5C2653.57,377.6,2652.07,411.1,2638.57,434.1z M2228.57,301.1
			c0,11,5.5,16.5,17,16.5h202.5v-31.5c0-11-5.5-16.5-17-16.5h-65.5c9-21,5-38.5-13.5-44.5c-14.5-4.5-34-0.5-46,9.5
			c2.5,10.5,5.5,23,8,35h-85.5V301.1z M2338.57,469.1c61,0,91.5-27,91.5-69.5s-33-73-91.5-73s-91.5,30.5-91.5,73
			S2277.57,469.1,2338.57,469.1z M2539.07,512.1c0-10.5-5.5-15.5-16-15.5h-225c-7,30.5-10.5,74-3.5,101c9,34,43.5,53,99,56
			c59,3,112.5-9.5,145.5-34.5V512.1z M2338.57,422.1c-22,0-34-9-34-25c0-16.5,13.5-26.5,34-26.5s34,10,34,26.5
			C2372.57,413.1,2360.57,422.1,2338.57,422.1z M2350.57,547.1h128v41c-19.5,11-64.5,14.5-94,9.5
			C2356.57,592.1,2347.57,578.6,2350.57,547.1z M2595.57,407.6c9.5-15,11.5-36,6.5-49.5c-6-15-19.5-20.5-59-13.5v-94
			c0-11-5.5-16.5-17-16.5h-46v245c38.5,4,56.5-3.5,61-24.5c3-12.5,2-27,2-47H2595.57z"/>
	</g>
</g>
</svg>
